<svg width="18" height="20" viewBox="0 0 18 20" fill="none" xmlns="http://www.w3.org/2000/svg">
<path d="M11.8034 12.196L14.9415 10.3844C15.2217 10.2226 15.3177 9.8643 15.1559 9.58402C14.9942 9.30379 14.6358 9.20766 14.3556 9.36957L11.2175 11.1812C10.9373 11.343 10.8413 11.7013 11.0031 11.9816C11.1392 12.2174 11.4812 12.3822 11.8034 12.196Z" fill="black"/>
<path d="M17.4459 4.78555L9.29303 0.0785156C9.1117 -0.0261719 8.88838 -0.0261719 8.70709 0.0785156L0.554199 4.78555C0.37291 4.89023 0.26123 5.08363 0.26123 5.29297V14.707C0.26123 14.9164 0.37291 15.1098 0.554199 15.2145L8.70709 19.9215C8.79771 19.9738 8.89889 20 9.00006 20C9.10123 20 9.2024 19.9738 9.29303 19.9215L17.4459 15.2145C17.6272 15.1098 17.7389 14.9164 17.7389 14.707V5.29297C17.7389 5.08363 17.6272 4.8902 17.4459 4.78555ZM13.2664 3.72555L6.28533 7.75602L4.73967 6.86355L11.7207 2.83309L13.2664 3.72555ZM5.69939 8.77086V10.5506L4.15154 9.65688L4.15299 7.87801L5.69939 8.77086ZM9.00006 1.2625L10.5487 2.1566L3.56768 6.18707L2.01904 5.29297L9.00006 1.2625ZM8.41412 18.3992L1.43311 14.3687V6.30781L2.98166 7.20184L2.97943 9.99449C2.97928 10.2039 3.09096 10.3976 3.2724 10.5024L5.9924 12.073C6.29752 12.2491 6.57268 12.0763 6.57834 12.073C6.75967 11.9683 6.87131 11.7749 6.87131 11.5655V9.44754L8.41412 10.3383V18.3992ZM9.00006 9.32344L7.45713 8.43266L14.4381 4.40219L15.981 5.29297L9.00006 9.32344ZM16.567 14.3687L9.586 18.3992V10.3383L16.567 6.30781V14.3687Z" fill="black"/>
<path d="M14.3556 12.5075L11.2176 14.3191C10.9374 14.4809 10.8413 14.8393 11.0031 15.1195C11.1408 15.3579 11.4834 15.5189 11.8035 15.334L14.9415 13.5225C15.2218 13.3606 15.3178 13.0023 15.156 12.7221C14.9942 12.4418 14.6359 12.3458 14.3556 12.5075Z" fill="black"/>
</svg>
