<svg width="100" height="22" viewBox="0 0 100 22" fill="none" xmlns="http://www.w3.org/2000/svg">
<path d="M0.442056 18.7619C0.324175 18.7619 0.218081 18.7209 0.123776 18.6387C0.0412586 18.5449 0 18.4393 0 18.322V6.88315C0 6.75409 0.0412586 6.6485 0.123776 6.56638C0.218081 6.48426 0.324175 6.44319 0.442056 6.44319H2.35174C2.63465 6.44319 2.84095 6.57225 2.97062 6.83035L6.08269 12.3738L9.19477 6.83035C9.32444 6.57225 9.53073 6.44319 9.81365 6.44319H11.7056C11.8353 6.44319 11.9414 6.48426 12.0239 6.56638C12.1182 6.6485 12.1654 6.75409 12.1654 6.88315V18.322C12.1654 18.451 12.1182 18.5566 12.0239 18.6387C11.9414 18.7209 11.8353 18.7619 11.7056 18.7619H9.60146C9.47179 18.7619 9.3598 18.7209 9.2655 18.6387C9.18298 18.5566 9.14172 18.451 9.14172 18.322V11.7227L7.16131 15.4007C7.00806 15.6705 6.80177 15.8054 6.54243 15.8054H5.62295C5.46971 15.8054 5.34593 15.7702 5.25163 15.6998C5.15732 15.6295 5.0748 15.5297 5.00408 15.4007L3.00598 11.7227V18.322C3.00598 18.4393 2.96472 18.5449 2.88221 18.6387C2.79969 18.7209 2.6936 18.7619 2.56393 18.7619H0.442056Z" fill="#2E2E2E"/>
<path d="M20.6551 18.7619C20.5372 18.7619 20.4311 18.7209 20.3368 18.6387C20.2543 18.5449 20.213 18.4393 20.213 18.322V6.88315C20.213 6.75409 20.2543 6.6485 20.3368 6.56638C20.4311 6.48426 20.5372 6.44319 20.6551 6.44319H28.9127C29.0424 6.44319 29.1484 6.48426 29.231 6.56638C29.3135 6.6485 29.3547 6.75409 29.3547 6.88315V8.53738C29.3547 8.6547 29.3135 8.76029 29.231 8.85415C29.1484 8.93627 29.0424 8.97733 28.9127 8.97733H23.272V11.3531H28.5237C28.6533 11.3531 28.7594 11.4 28.842 11.4939C28.9245 11.576 28.9657 11.6816 28.9657 11.8106V13.3417C28.9657 13.459 28.9245 13.5646 28.842 13.6585C28.7594 13.7406 28.6533 13.7816 28.5237 13.7816H23.272V16.2278H29.0541C29.1838 16.2278 29.2899 16.2689 29.3724 16.351C29.4549 16.4331 29.4962 16.5387 29.4962 16.6677V18.322C29.4962 18.4393 29.4549 18.5449 29.3724 18.6387C29.2899 18.7209 29.1838 18.7619 29.0541 18.7619H20.6551Z" fill="#2E2E2E"/>
<path d="M37.5181 18.7619C37.4002 18.7619 37.2942 18.7209 37.1999 18.6387C37.1173 18.5449 37.0761 18.4393 37.0761 18.322V6.88315C37.0761 6.75409 37.1173 6.6485 37.1999 6.56638C37.2942 6.48426 37.4002 6.44319 37.5181 6.44319H46.0056C46.1353 6.44319 46.2414 6.48426 46.3239 6.56638C46.4064 6.6485 46.4477 6.75409 46.4477 6.88315V8.64297C46.4477 8.77202 46.4064 8.88348 46.3239 8.97733C46.2414 9.05946 46.1353 9.10052 46.0056 9.10052H40.2589V11.1771H42.7167C44.1313 11.1771 45.2453 11.5115 46.0587 12.1802C46.872 12.8489 47.2787 13.764 47.2787 14.9255C47.2787 15.6529 47.1019 16.3099 46.7483 16.8965C46.3946 17.4714 45.8759 17.9289 45.1922 18.2692C44.5085 18.5977 43.6833 18.7619 42.7167 18.7619H37.5181ZM42.4338 16.4742C42.9171 16.4742 43.2943 16.3216 43.5655 16.0166C43.8484 15.7116 43.9898 15.342 43.9898 14.9079C43.9898 14.4738 43.8543 14.116 43.5831 13.8344C43.312 13.5529 42.9289 13.4121 42.4338 13.4121H40.2589V16.4742H42.4338Z" fill="#2E2E2E"/>
<path d="M54.7093 18.7619C54.5914 18.7619 54.4853 18.7209 54.391 18.6387C54.3085 18.5449 54.2672 18.4393 54.2672 18.322V6.88315C54.2672 6.75409 54.3085 6.6485 54.391 6.56638C54.4853 6.48426 54.5914 6.44319 54.7093 6.44319H62.9669C63.0966 6.44319 63.2027 6.48426 63.2852 6.56638C63.3677 6.6485 63.4089 6.75409 63.4089 6.88315V8.53738C63.4089 8.6547 63.3677 8.76029 63.2852 8.85415C63.2027 8.93627 63.0966 8.97733 62.9669 8.97733H57.3263V11.3531H62.5779C62.7076 11.3531 62.8136 11.4 62.8962 11.4939C62.9787 11.576 63.0199 11.6816 63.0199 11.8106V13.3417C63.0199 13.459 62.9787 13.5646 62.8962 13.6585C62.8136 13.7406 62.7076 13.7816 62.5779 13.7816H57.3263V16.2278H63.1083C63.238 16.2278 63.3441 16.2689 63.4266 16.351C63.5091 16.4331 63.5504 16.5387 63.5504 16.6677V18.322C63.5504 18.4393 63.5091 18.5449 63.4266 18.6387C63.3441 18.7209 63.238 18.7619 63.1083 18.7619H54.7093Z" fill="#2E2E2E"/>
<path d="M79.4233 18.7619C79.3054 18.7619 79.1993 18.7209 79.105 18.6387C79.0225 18.5449 78.9812 18.4393 78.9812 18.322V9.2589H75.6923V10.8603C75.6923 12.8431 75.5626 14.3917 75.3033 15.5063C75.044 16.6091 74.5665 17.4245 73.871 17.9524C73.1873 18.4686 72.1912 18.7385 70.8827 18.7619C70.7531 18.7619 70.6411 18.7209 70.5468 18.6387C70.4525 18.5449 70.4053 18.4334 70.4053 18.3044V16.4566C70.4053 16.2102 70.5527 16.0577 70.8474 15.999C71.4839 15.8934 71.9378 15.3772 72.2089 14.4504C72.48 13.5118 72.6156 12.1802 72.6156 10.4556V6.88315C72.6156 6.75409 72.6569 6.6485 72.7394 6.56638C72.8337 6.48426 72.9457 6.44319 73.0753 6.44319H81.7043C81.8339 6.44319 81.94 6.48426 82.0225 6.56638C82.1169 6.6485 82.164 6.75409 82.164 6.88315V18.322C82.164 18.451 82.1169 18.5566 82.0225 18.6387C81.94 18.7209 81.8339 18.7619 81.7043 18.7619H79.4233Z" fill="#2E2E2E"/>
<path d="M90.6284 18.7619C90.5105 18.7619 90.4044 18.7209 90.3101 18.6387C90.2276 18.5449 90.1864 18.4393 90.1864 18.322V6.88315C90.1864 6.75409 90.2276 6.6485 90.3101 6.56638C90.4044 6.48426 90.5105 6.44319 90.6284 6.44319H92.9094C93.0391 6.44319 93.1452 6.48426 93.2277 6.56638C93.322 6.6485 93.3692 6.75409 93.3692 6.88315V10.6668H95.2258C96.7583 10.6668 97.9371 11.007 98.7622 11.6875C99.5874 12.3562 100 13.3476 100 14.6616C100 15.9052 99.5815 16.9024 98.7446 17.6532C97.9194 18.3924 96.7465 18.7619 95.2258 18.7619H90.6284ZM95.1551 16.3158C95.6502 16.3158 96.0333 16.1633 96.3044 15.8582C96.5755 15.5532 96.7111 15.1543 96.7111 14.6616C96.7111 14.1453 96.5755 13.7582 96.3044 13.5001C96.0333 13.2302 95.6502 13.0953 95.1551 13.0953H93.3692V16.3158H95.1551Z" fill="#2E2E2E"/>
<path d="M32.641 0.253696C32.4611 0.263645 32.3286 0.283542 32.2436 0.313389C32.1637 0.343236 32.1087 0.400441 32.0787 0.485007C32.0487 0.569572 32.0337 0.706368 32.0337 0.895396V4.68591C32.0337 4.84509 32.0462 4.96199 32.0712 5.0366C32.0962 5.10625 32.1387 5.1535 32.1987 5.17838C32.2636 5.20325 32.3661 5.21568 32.5061 5.21568H32.8734C33.2133 5.21568 33.5057 5.06396 33.7506 4.76052C34.0005 4.45708 34.1629 4.05416 34.2379 3.55174H34.4104C34.3954 3.72087 34.3879 3.93974 34.3879 4.20836C34.3879 4.68591 34.4054 5.07889 34.4403 5.3873C34.1005 5.37238 33.5282 5.36492 32.7235 5.36492C31.6339 5.36492 30.8192 5.37238 30.2794 5.3873V5.23807C30.4443 5.22812 30.5643 5.20822 30.6392 5.17838C30.7192 5.14853 30.7717 5.09132 30.7967 5.00676C30.8267 4.92219 30.8417 4.7854 30.8417 4.59637V0.895396C30.8417 0.706368 30.8267 0.569572 30.7967 0.485007C30.7717 0.400441 30.7192 0.343236 30.6392 0.313389C30.5643 0.283542 30.4443 0.263645 30.2794 0.253696V0.104463C30.5343 0.119386 30.9291 0.126848 31.4639 0.126848C31.9737 0.126848 32.3661 0.119386 32.641 0.104463V0.253696Z" fill="#2E2E2E"/>
<path d="M43.9548 0C44.4846 0 44.9469 0.10695 45.3418 0.320851C45.7416 0.534751 46.0515 0.845652 46.2715 1.25356C46.4914 1.65648 46.6013 2.139 46.6013 2.70111C46.6013 3.2483 46.4889 3.73331 46.264 4.15613C46.039 4.57896 45.7241 4.90727 45.3193 5.14107C44.9194 5.37487 44.4621 5.49176 43.9473 5.49176C43.4175 5.49176 42.9527 5.38481 42.5528 5.17091C42.1579 4.95701 41.8506 4.6486 41.6306 4.24567C41.4107 3.83777 41.3008 3.35276 41.3008 2.79065C41.3008 2.24347 41.4132 1.75846 41.6381 1.33563C41.8631 0.912807 42.1754 0.584495 42.5753 0.350697C42.9801 0.116899 43.44 0 43.9548 0ZM43.9248 0.134309C43.6499 0.134309 43.4075 0.246234 43.1976 0.470083C42.9876 0.688958 42.8252 0.997372 42.7102 1.39533C42.6003 1.79328 42.5453 2.24844 42.5453 2.76081C42.5453 3.27815 42.6078 3.73331 42.7327 4.12628C42.8627 4.51926 43.0351 4.8227 43.25 5.0366C43.47 5.2505 43.7124 5.35745 43.9773 5.35745C44.2522 5.35745 44.4946 5.24802 44.7045 5.02914C44.9144 4.80529 45.0744 4.49439 45.1843 4.09644C45.2993 3.69848 45.3568 3.24332 45.3568 2.73096C45.3568 2.21362 45.2918 1.75846 45.1619 1.36548C45.0369 0.9725 44.8645 0.66906 44.6445 0.45516C44.4296 0.24126 44.1897 0.134309 43.9248 0.134309Z" fill="#2E2E2E"/>
<path d="M57.6626 0.104463C57.6276 0.527289 57.6101 0.905345 57.6101 1.23863C57.6101 1.47243 57.6176 1.66146 57.6326 1.80572H57.4601C57.3602 1.24361 57.2102 0.848139 57.0103 0.619316C56.8104 0.390492 56.5305 0.276081 56.1706 0.276081H55.9232C55.7682 0.276081 55.6558 0.288517 55.5858 0.313389C55.5158 0.338261 55.4684 0.388005 55.4434 0.462622C55.4184 0.532264 55.4059 0.646675 55.4059 0.805857V2.68619H55.6683C55.9332 2.68619 56.1331 2.58919 56.2681 2.39519C56.408 2.20118 56.5055 1.96987 56.5605 1.70125H56.7329C56.7179 1.91018 56.7104 2.14398 56.7104 2.40265V2.76081C56.7104 3.0145 56.7254 3.36769 56.7554 3.82036H56.583C56.478 3.16373 56.1731 2.83542 55.6683 2.83542H55.4059V4.5516C55.4059 4.75058 55.4259 4.89732 55.4659 4.99183C55.5108 5.08137 55.5858 5.14107 55.6908 5.17091C55.8007 5.20076 55.9732 5.21817 56.2081 5.22315V5.3873C55.5933 5.37238 55.136 5.36492 54.8361 5.36492C54.5862 5.36492 54.2713 5.36989 53.8914 5.37984L53.6515 5.3873V5.23807C53.8165 5.22812 53.9364 5.20822 54.0114 5.17838C54.0914 5.14853 54.1438 5.09132 54.1688 5.00676C54.1988 4.92219 54.2138 4.7854 54.2138 4.59637V0.895396C54.2138 0.706368 54.1988 0.569572 54.1688 0.485007C54.1438 0.400441 54.0914 0.343236 54.0114 0.313389C53.9364 0.283542 53.8165 0.263645 53.6515 0.253696V0.104463C54.1913 0.119386 55.006 0.126848 56.0956 0.126848C56.8304 0.126848 57.3527 0.119386 57.6626 0.104463Z" fill="#2E2E2E"/>
<path d="M68.7538 0.104463C68.7188 0.577033 68.7013 0.999859 68.7013 1.37294C68.7013 1.60674 68.7088 1.79577 68.7238 1.94003H68.5513C68.4314 1.32817 68.2665 0.897884 68.0565 0.649162C67.8516 0.400441 67.5692 0.276081 67.2093 0.276081H67.0369V4.53667C67.0369 4.7456 67.0569 4.89732 67.0969 4.99183C67.1419 5.08635 67.2168 5.15102 67.3218 5.18584C67.4318 5.21568 67.6042 5.23309 67.8391 5.23807V5.3873C67.2093 5.37238 66.7345 5.36492 66.4146 5.36492C66.0997 5.36492 65.6424 5.37238 65.0426 5.3873V5.23807C65.2775 5.23309 65.4475 5.21568 65.5524 5.18584C65.6624 5.15102 65.7374 5.08635 65.7774 4.99183C65.8223 4.89732 65.8448 4.7456 65.8448 4.53667V0.276081H65.6799C65.44 0.276081 65.2351 0.328312 65.0651 0.432775C64.9002 0.537238 64.7577 0.711343 64.6378 0.95509C64.5178 1.19386 64.4154 1.52217 64.3304 1.94003H64.158C64.1729 1.79577 64.1804 1.60674 64.1804 1.37294C64.1804 0.999859 64.1629 0.577033 64.128 0.104463C64.5828 0.119386 65.355 0.126848 66.4446 0.126848C67.5342 0.126848 68.3039 0.119386 68.7538 0.104463Z" fill="#2E2E2E"/>
<path d="M6.82535 0.0374494H29.4586V0.882163H6.82535V0.0374494Z" fill="#2E2E2E"/>
<path d="M3.43036 2.14923H29.4586V2.99395H3.43036V2.14923Z" fill="#2E2E2E"/>
<path d="M0.31828 4.4018H29.4586V5.24652H0.31828V4.4018Z" fill="#2E2E2E"/>
<path d="M92.8318 0.0374494H70.1985V0.882163H92.8318V0.0374494Z" fill="#2E2E2E"/>
<path d="M99.3389 19.4659H0.31828V20.3106H99.3389V19.4659Z" fill="#2E2E2E"/>
<path d="M96.2268 21.1553H2.86452V22H96.2268V21.1553Z" fill="#2E2E2E"/>
<path d="M96.2268 2.14923H70.1985V2.99395H96.2268V2.14923Z" fill="#2E2E2E"/>
<path d="M99.3389 4.4018H70.1985V5.24652H99.3389V4.4018Z" fill="#2E2E2E"/>
</svg>
