<svg width="8" height="8" viewBox="0 0 8 8" fill="none" xmlns="http://www.w3.org/2000/svg">
    <path d="M4.27144 0.147369C4.22691 0.05713 4.135 0 4.03437 0C3.93374 0 3.84184 0.05713 3.7973 0.147369L2.71504 2.34029L0.295231 2.69169C0.195642 2.70615 0.1129 2.7759 0.0817982 2.87161C0.0506963 2.96732 0.0766286 3.07238 0.148691 3.14262L1.89974 4.84948L1.48626 7.25986C1.46924 7.35904 1.51002 7.45928 1.59143 7.51843C1.67284 7.57758 1.78078 7.58538 1.86985 7.53855L4.03437 6.40053L6.1989 7.53855C6.28797 7.58538 6.3959 7.57758 6.47731 7.51843C6.55873 7.45928 6.5995 7.35904 6.58248 7.25986L6.16901 4.84948L7.92005 3.14262C7.99211 3.07238 8.01805 2.96732 7.98694 2.87161C7.95584 2.7759 7.8731 2.70615 7.77351 2.69169L5.3537 2.34029L4.27144 0.147369Z"/>
</svg>
